<svg width="58" height="53" viewBox="0 0 58 53" fill="none" xmlns="http://www.w3.org/2000/svg">
<path fill-rule="evenodd" clip-rule="evenodd" d="M40.1486 21.1859C39.5336 19.6394 38.5898 18.2301 37.3169 16.9578L39.9821 14.2886C41.9619 16.2697 43.326 18.5061 44.074 20.998C44.531 22.5162 44.7603 24.129 44.7616 25.8367V25.8411C44.761 28.3376 44.2727 30.631 43.2967 32.7212C42.5112 34.4112 41.4076 35.9686 39.9864 37.3934L37.3125 34.7199C38.2886 33.7432 39.0704 32.6869 39.6574 31.551C40.547 29.8308 40.9911 27.9275 40.9901 25.841V25.8367C40.9922 24.1695 40.7119 22.6193 40.1486 21.1859Z" fill="#2BA579"/>
<path fill-rule="evenodd" clip-rule="evenodd" d="M35.4514 18.8625C36.095 19.5103 36.6304 20.2036 37.0575 20.9424H37.0619C37.9023 22.3956 38.3222 24.0241 38.3218 25.8281V25.8366C38.3215 27.7096 37.8703 29.3951 36.9678 30.8934H36.9636C36.5469 31.5785 36.0359 32.2248 35.43 32.8322V32.8278L35.4258 32.8322L32.752 30.1587C32.926 29.979 33.0868 29.7953 33.2347 29.6078V29.6034C34.1029 28.5264 34.5385 27.2707 34.5418 25.8366V25.8281C34.5404 24.1444 33.9454 22.708 32.7564 21.5189L35.4344 18.8369C35.4404 18.8451 35.4461 18.8536 35.4514 18.8625Z" fill="#2BA579"/>
<path fill-rule="evenodd" clip-rule="evenodd" d="M26.2114 23.6028C26.8237 22.9899 27.564 22.6838 28.4325 22.6846C29.3024 22.6838 30.0442 22.9899 30.6578 23.6028L30.6622 23.6071C31.2724 24.2199 31.577 24.9602 31.5761 25.8279V25.8364C31.5749 26.7024 31.2688 27.4412 30.6578 28.053C30.6556 28.0549 30.6543 28.058 30.6536 28.0615C30.0396 28.6687 29.2995 28.9718 28.4325 28.9712C27.565 28.9719 26.8261 28.6672 26.2156 28.0572L26.2113 28.053C25.6013 27.4425 25.2952 26.7049 25.293 25.8407C25.293 25.8363 25.293 25.8321 25.293 25.8278C25.2921 24.9626 25.5955 24.2236 26.2028 23.6113C26.2054 23.6088 26.2082 23.606 26.2114 23.6028Z" fill="#2BA579"/>
<path fill-rule="evenodd" clip-rule="evenodd" d="M18.5372 25.8281C18.5367 25.7073 18.5382 25.5879 18.5415 25.4694C18.6232 22.8912 19.5857 20.6804 21.4289 18.8369L24.1027 21.5104C22.9123 22.7021 22.3185 24.1414 22.3215 25.8281C22.3215 25.8325 22.3215 25.8366 22.3215 25.841C22.3204 26.029 22.3276 26.2142 22.3429 26.3962V26.4004C22.4611 27.8456 23.0477 29.0969 24.1027 30.1545C24.1052 30.1572 24.108 30.16 24.1113 30.163L21.4331 32.8366L21.4289 32.8322C19.503 30.9025 18.5391 28.5721 18.5372 25.841C18.5372 25.8366 18.5372 25.8324 18.5372 25.8281Z" fill="#2BA579"/>
<path fill-rule="evenodd" clip-rule="evenodd" d="M12.2368 23.5817C12.6861 20.026 14.2323 16.9268 16.8753 14.2842L19.5491 16.9578C17.4013 19.104 16.1925 21.6395 15.9228 24.564C15.8853 24.981 15.8668 25.4066 15.8673 25.841C15.8674 29.3061 17.0919 32.2656 19.5405 34.7198L19.5448 34.7242L16.871 37.3976L16.8667 37.3933C13.684 34.2033 12.0936 30.3524 12.0957 25.841C12.0961 25.0682 12.1431 24.315 12.2368 23.5817Z" fill="#2BA579"/>
</svg>
